<?xml version="1.0" standalone="no"?>
<!DOCTYPE svg PUBLIC "-//W3C//DTD SVG 20010904//EN"
 "http://www.w3.org/TR/2001/REC-SVG-20010904/DTD/svg10.dtd">
<svg version="1.0" xmlns="http://www.w3.org/2000/svg"
 width="594.000000pt" height="594.000000pt" viewBox="0 0 594.000000 594.000000"
 preserveAspectRatio="xMidYMid meet">
<metadata>
Created by potrace 1.14, written by Peter Selinger 2001-2017
</metadata>
<g transform="translate(0.000000,594.000000) scale(0.100000,-0.100000)"
fill="#000000" stroke="none">
<path d="M414 5762 c3 -6 -2 -15 -11 -21 -10 -6 -13 -11 -7 -11 20 0 37 27 23
36 -7 4 -9 3 -5 -4z"/>
<path d="M534 5756 c1 -8 5 -18 8 -22 4 -3 5 1 4 10 -1 8 -5 18 -8 22 -4 3 -5
-1 -4 -10z"/>
<path d="M614 5756 c1 -8 5 -18 8 -22 4 -3 5 1 4 10 -1 8 -5 18 -8 22 -4 3 -5
-1 -4 -10z"/>
<path d="M737 5764 c-8 -8 3 -34 15 -34 7 0 6 5 -1 13 -6 8 -8 17 -4 20 3 4 4
7 1 7 -2 0 -7 -3 -11 -6z"/>
<path d="M1014 5756 c1 -8 5 -18 8 -22 4 -3 5 1 4 10 -1 8 -5 18 -8 22 -4 3
-5 -1 -4 -10z"/>
<path d="M1094 5756 c1 -8 5 -18 8 -22 4 -3 5 1 4 10 -1 8 -5 18 -8 22 -4 3
-5 -1 -4 -10z"/>
<path d="M1494 5756 c1 -8 5 -18 8 -22 4 -3 5 1 4 10 -1 8 -5 18 -8 22 -4 3
-5 -1 -4 -10z"/>
<path d="M1574 5756 c1 -8 5 -18 8 -22 4 -3 5 1 4 10 -1 8 -5 18 -8 22 -4 3
-5 -1 -4 -10z"/>
<path d="M1697 5764 c-8 -8 3 -34 15 -34 7 0 6 5 -1 13 -6 8 -8 17 -4 20 3 4
4 7 1 7 -2 0 -7 -3 -11 -6z"/>
<path d="M1930 5760 c0 -5 5 -10 11 -10 5 0 7 5 4 10 -3 6 -8 10 -11 10 -2 0
-4 -4 -4 -10z"/>
<path d="M2010 5760 c0 -5 5 -10 11 -10 5 0 7 5 4 10 -3 6 -8 10 -11 10 -2 0
-4 -4 -4 -10z"/>
<path d="M2253 5763 c4 -3 2 -11 -3 -18 -7 -8 -6 -12 3 -12 7 0 14 9 14 19 1
10 -3 18 -9 18 -6 0 -8 -3 -5 -7z"/>
<path d="M2310 5766 c0 -2 7 -7 16 -10 8 -3 12 -2 9 4 -6 10 -25 14 -25 6z"/>
<path d="M2437 5748 c9 -10 17 -18 17 -18 1 0 2 8 2 18 0 10 -8 18 -18 18 -16
0 -16 -2 -1 -18z"/>
<path d="M2517 5748 c9 -10 17 -18 17 -18 1 0 2 8 2 18 0 10 -8 18 -18 18 -16
0 -16 -2 -1 -18z"/>
<path d="M2655 5761 c3 -5 0 -13 -6 -17 -6 -3 -15 -1 -19 6 -5 9 -9 8 -13 -2
-3 -10 3 -14 22 -14 19 0 27 5 28 18 1 10 -3 18 -8 18 -6 0 -8 -4 -4 -9z"/>
<path d="M2736 5758 c3 -4 11 -5 19 -1 21 7 19 12 -4 10 -11 0 -18 -5 -15 -9z"/>
<path d="M2790 5760 c0 -5 5 -10 11 -10 5 0 7 5 4 10 -3 6 -8 10 -11 10 -2 0
-4 -4 -4 -10z"/>
<path d="M2917 5748 c9 -10 17 -18 17 -18 1 0 2 8 2 18 0 10 -8 18 -18 18 -16
0 -16 -2 -1 -18z"/>
<path d="M2997 5748 c9 -10 17 -18 17 -18 1 0 2 8 2 18 0 10 -8 18 -18 18 -16
0 -16 -2 -1 -18z"/>
<path d="M3120 5756 c14 -18 13 -19 -5 -12 -16 6 -18 5 -7 -5 8 -9 15 -10 22
-3 8 8 5 15 -7 25 -17 13 -17 13 -3 -5z"/>
<path d="M3215 5761 c9 -16 -16 -25 -27 -10 -8 12 -9 11 -5 -1 6 -22 43 -21
44 1 1 11 -3 19 -8 19 -6 0 -8 -4 -4 -9z"/>
<path d="M3270 5766 c0 -2 7 -7 16 -10 8 -3 12 -2 9 4 -6 10 -25 14 -25 6z"/>
<path d="M3397 5748 c9 -10 17 -18 17 -18 1 0 2 8 2 18 0 10 -8 18 -18 18 -16
0 -16 -2 -1 -18z"/>
<path d="M3477 5748 c9 -10 17 -18 17 -18 1 0 2 8 2 18 0 10 -8 18 -18 18 -16
0 -16 -2 -1 -18z"/>
<path d="M3615 5761 c3 -5 0 -13 -6 -17 -6 -3 -15 -1 -19 6 -5 9 -9 8 -13 -2
-3 -10 3 -14 22 -14 19 0 27 5 28 18 1 10 -3 18 -8 18 -6 0 -8 -4 -4 -9z"/>
<path d="M3696 5758 c3 -4 11 -5 19 -1 21 7 19 12 -4 10 -11 0 -18 -5 -15 -9z"/>
<path d="M3970 5760 c0 -5 5 -10 11 -10 5 0 7 5 4 10 -3 6 -8 10 -11 10 -2 0
-4 -4 -4 -10z"/>
<path d="M4374 5756 c1 -8 5 -18 8 -22 4 -3 5 1 4 10 -1 8 -5 18 -8 22 -4 3
-5 -1 -4 -10z"/>
<path d="M4454 5756 c1 -8 5 -18 8 -22 4 -3 5 1 4 10 -1 8 -5 18 -8 22 -4 3
-5 -1 -4 -10z"/>
<path d="M4577 5764 c-8 -8 3 -34 15 -34 7 0 6 5 -1 13 -6 8 -8 17 -4 20 3 4
4 7 1 7 -2 0 -7 -3 -11 -6z"/>
<path d="M4854 5756 c1 -8 5 -18 8 -22 4 -3 5 1 4 10 -1 8 -5 18 -8 22 -4 3
-5 -1 -4 -10z"/>
<path d="M4934 5756 c1 -8 5 -18 8 -22 4 -3 5 1 4 10 -1 8 -5 18 -8 22 -4 3
-5 -1 -4 -10z"/>
<path d="M5334 5756 c1 -8 5 -18 8 -22 4 -3 5 1 4 10 -1 8 -5 18 -8 22 -4 3
-5 -1 -4 -10z"/>
<path d="M5414 5756 c1 -8 5 -18 8 -22 4 -3 5 1 4 10 -1 8 -5 18 -8 22 -4 3
-5 -1 -4 -10z"/>
<path d="M475 5751 c-3 -5 -2 -12 3 -15 5 -3 9 1 9 9 0 17 -3 19 -12 6z"/>
<path d="M698 5743 c-4 -14 -14 -23 -25 -23 -17 1 -17 1 1 15 26 19 17 19 -23
-1 -30 -15 -34 -15 -54 2 -19 16 -20 17 -8 2 8 -11 9 -18 3 -18 -6 0 -14 5
-17 10 -5 8 -11 7 -21 -1 -11 -9 -19 -8 -37 7 -16 15 -19 15 -9 2 14 -17 10
-18 -51 -9 -5 0 -5 6 -1 13 4 7 3 8 -5 4 -6 -4 -9 -11 -6 -16 2 -4 -17 -7 -43
-7 -26 0 -66 0 -89 -1 l-43 -2 0 -40 c0 -25 -5 -40 -12 -40 -8 0 -9 -3 -3 -8
21 -15 16 -34 -7 -27 -22 5 -21 5 2 -9 15 -10 19 -15 10 -16 -10 0 -11 -3 -3
-8 6 -4 11 -26 10 -50 -2 -33 -5 -41 -17 -37 -13 4 -13 4 0 -7 19 -16 27 -53
9 -42 -8 5 -9 3 -3 -7 13 -21 14 -40 1 -33 -8 5 -7 2 1 -7 15 -16 16 -33 0
-23 -7 5 -8 3 -2 -7 14 -23 15 -49 1 -49 -7 0 -8 -3 -2 -8 11 -8 16 -62 6 -62
-4 0 -12 5 -17 10 -7 7 -11 6 -11 -4 0 -8 3 -15 6 -14 19 2 27 -4 28 -22 1
-13 -2 -18 -9 -14 -7 5 -8 2 -2 -7 13 -21 13 -119 0 -119 -7 0 -7 -3 -1 -8 6
-4 11 -20 11 -35 1 -22 -2 -27 -15 -23 -13 5 -13 4 1 -7 14 -11 15 -16 5 -27
-10 -10 -9 -11 3 -5 13 8 13 7 0 -10 -9 -11 -10 -16 -3 -11 9 5 12 0 11 -18
-1 -13 -6 -22 -10 -20 -4 3 -8 0 -8 -5 0 -6 4 -11 9 -11 11 0 8 -81 -3 -99 -6
-10 -5 -12 2 -7 8 5 11 -1 10 -18 -1 -13 -6 -22 -10 -20 -4 3 -8 0 -8 -5 0 -6
4 -11 8 -11 5 0 9 -31 9 -70 0 -43 -5 -70 -11 -70 -7 0 -7 -3 -1 -8 6 -4 11
-20 11 -35 1 -22 -2 -27 -15 -23 -14 5 -14 5 -1 -6 19 -16 27 -53 9 -42 -8 5
-9 3 -3 -7 13 -21 14 -40 1 -33 -8 5 -7 2 1 -7 15 -16 16 -33 0 -23 -7 5 -8 3
-2 -7 14 -23 15 -49 1 -49 -7 0 -8 -3 -2 -8 11 -8 16 -62 6 -62 -4 0 -12 5
-17 10 -7 7 -11 6 -11 -4 0 -8 3 -15 6 -14 19 2 27 -4 28 -22 1 -13 -2 -18 -9
-14 -7 5 -8 2 -2 -7 13 -21 13 -119 0 -119 -7 0 -7 -3 -1 -8 6 -4 11 -20 11
-35 1 -22 -2 -27 -15 -23 -13 5 -13 4 1 -7 14 -11 15 -16 5 -27 -10 -10 -9
-11 3 -5 13 8 13 7 0 -10 -9 -11 -10 -16 -3 -11 9 5 12 0 11 -18 -1 -13 -6
-22 -10 -20 -4 3 -8 0 -8 -5 0 -6 4 -11 9 -11 11 0 8 -81 -3 -99 -6 -10 -5
-12 2 -7 8 5 11 -1 10 -18 -1 -13 -6 -22 -10 -20 -4 3 -8 0 -8 -5 0 -6 4 -11
8 -11 5 0 9 -31 9 -70 0 -43 -5 -70 -11 -70 -7 0 -7 -3 -1 -8 6 -4 11 -20 11
-35 1 -22 -2 -27 -15 -23 -14 5 -14 5 -1 -6 19 -16 27 -53 9 -42 -8 5 -9 3 -3
-7 13 -21 14 -40 1 -33 -8 5 -7 2 1 -7 15 -16 16 -33 0 -23 -7 5 -8 3 -2 -7
14 -23 15 -49 1 -49 -7 0 -8 -3 -2 -8 11 -8 16 -62 6 -62 -4 0 -12 5 -17 10
-7 7 -11 6 -11 -4 0 -8 3 -15 6 -14 19 2 27 -4 28 -22 1 -13 -2 -18 -9 -14 -7
5 -8 2 -2 -7 13 -21 13 -119 0 -119 -7 0 -7 -3 -1 -8 6 -4 11 -20 11 -35 1
-22 -2 -27 -15 -23 -13 5 -13 4 1 -7 14 -11 15 -16 5 -27 -10 -10 -9 -11 3 -5
13 8 13 7 0 -10 -9 -11 -10 -16 -3 -11 9 5 12 0 11 -18 -1 -13 -6 -22 -10 -20
-4 3 -8 0 -8 -5 0 -6 4 -11 9 -11 11 0 8 -81 -3 -99 -6 -10 -5 -12 2 -7 8 5
11 -1 10 -18 -1 -13 -6 -22 -10 -20 -4 3 -8 0 -8 -5 0 -6 4 -11 8 -11 5 0 9
-31 9 -70 0 -43 -5 -70 -11 -70 -7 0 -7 -3 -1 -8 6 -4 11 -20 11 -35 1 -22 -2
-27 -15 -23 -14 5 -14 5 -1 -6 19 -16 27 -53 9 -42 -8 5 -9 3 -3 -7 13 -21 14
-40 1 -33 -8 5 -7 2 0 -7 16 -16 17 -33 1 -23 -7 5 -8 3 -2 -7 14 -23 15 -49
1 -49 -7 0 -8 -3 -2 -8 11 -8 16 -62 6 -62 -4 0 -12 5 -17 10 -7 7 -11 6 -11
-4 0 -8 3 -15 6 -14 19 2 27 -4 28 -22 1 -13 -2 -18 -9 -14 -7 5 -8 2 -2 -7
13 -21 13 -119 0 -119 -7 0 -7 -3 -1 -8 6 -4 11 -20 11 -35 1 -22 -2 -27 -15
-23 -13 5 -13 4 1 -7 14 -11 15 -16 5 -27 -10 -10 -9 -11 3 -5 13 8 13 7 0
-10 -9 -11 -10 -16 -3 -11 9 5 12 0 11 -18 -1 -13 -6 -22 -10 -20 -4 3 -8 0
-8 -5 0 -6 4 -11 9 -11 11 0 8 -81 -3 -99 -6 -10 -5 -12 2 -7 8 5 11 -1 10
-18 -1 -13 -6 -22 -10 -20 -4 3 -8 0 -8 -5 0 -6 4 -11 8 -11 5 0 9 -31 9 -70
0 -43 -5 -70 -11 -70 -7 0 -7 -3 -1 -8 6 -4 11 -20 11 -35 1 -22 -2 -27 -15
-23 -14 5 -14 5 -1 -6 19 -16 27 -53 9 -42 -8 5 -9 3 -3 -7 13 -21 14 -40 1
-33 -8 5 -7 2 1 -7 15 -16 16 -33 0 -23 -7 5 -8 3 -2 -7 14 -23 15 -49 1 -49
-7 0 -8 -3 -2 -8 11 -8 16 -62 6 -62 -4 0 -12 5 -17 10 -7 7 -11 6 -11 -4 0
-8 3 -15 6 -14 19 2 27 -4 28 -22 1 -13 -2 -18 -9 -14 -7 5 -8 2 -2 -7 13 -21
13 -119 0 -119 -7 0 -7 -3 -1 -8 6 -4 11 -20 11 -35 1 -22 -2 -27 -15 -23 -13
5 -13 4 1 -7 14 -11 15 -16 5 -27 -10 -10 -9 -11 3 -5 13 8 13 7 0 -10 -9 -11
-10 -16 -3 -11 9 5 12 0 11 -18 -1 -13 -6 -22 -10 -20 -4 3 -8 0 -8 -5 0 -6 4
-11 9 -11 11 0 8 -81 -3 -99 -6 -10 -5 -12 2 -7 8 5 11 -1 10 -18 -1 -13 -6
-22 -10 -20 -4 3 -8 0 -8 -5 0 -6 4 -11 8 -11 5 0 9 -31 9 -70 0 -43 -5 -70
-11 -70 -7 0 -7 -3 -1 -8 6 -4 11 -20 11 -35 1 -22 -2 -27 -15 -23 -14 5 -14
5 -1 -6 19 -16 27 -53 9 -42 -8 5 -9 3 -3 -7 13 -21 14 -40 1 -33 -8 5 -7 2 0
-7 16 -16 17 -33 1 -23 -7 5 -8 3 -2 -7 14 -23 15 -49 1 -49 -7 0 -8 -3 -2 -8
6 -4 11 -20 11 -35 1 -22 -2 -27 -15 -23 -14 6 -14 5 0 -6 16 -13 21 -110 6
-124 -10 -11 -8 -24 4 -24 5 0 7 5 4 10 -3 6 -2 10 2 10 9 0 37 -59 34 -72 0
-4 6 -5 14 -2 8 4 15 2 15 -3 0 -5 6 -10 13 -11 6 -1 379 -3 827 -5 870 -3
839 -5 877 43 15 18 17 6 3 -20 -7 -13 -7 -21 0 -25 6 -4 7 -11 4 -17 -4 -7
-2 -8 5 -4 9 6 9 11 0 22 -14 17 2 19 19 2 7 -7 12 -8 12 -4 0 5 -8 15 -17 22
-12 9 -14 13 -5 14 7 0 10 5 7 10 -3 6 -1 10 5 10 7 0 9 -7 6 -16 -4 -12 -2
-15 9 -11 8 4 21 0 29 -8 7 -8 16 -11 20 -8 3 4 6 2 6 -3 0 -5 200 -9 492 -8
344 1 497 -2 507 -10 9 -7 12 -7 9 -1 -4 7 84 11 273 10 244 0 279 -2 274 -15
-4 -11 -1 -10 8 2 10 12 17 14 24 7 8 -8 13 -7 17 0 11 18 26 13 20 -6 -4 -14
-2 -13 7 2 18 30 19 31 29 15 8 -12 10 -9 10 10 0 20 2 22 10 10 9 -15 11 -13
14 12 1 14 26 23 26 9 0 -5 -4 -12 -9 -15 -5 -3 -7 -16 -3 -28 5 -21 5 -21 15
3 6 13 10 31 9 39 -1 10 0 11 4 2 3 -6 9 -10 13 -8 4 3 8 -1 8 -9 0 -8 -4 -15
-9 -15 -4 0 -8 -5 -8 -12 0 -6 9 -3 20 7 19 17 20 17 20 -1 0 -16 2 -17 10 -4
5 8 10 11 10 5 0 -7 254 -10 742 -9 526 1 747 -2 757 -10 11 -8 13 -8 8 1 -9
15 35 14 45 -2 5 -7 8 -7 8 1 0 6 17 10 38 9 20 0 43 5 51 13 8 7 23 11 33 9
16 -4 17 -3 7 9 -9 11 -8 15 4 20 21 8 31 38 30 92 -1 29 2 40 10 35 9 -5 9
-3 1 8 -15 20 -15 59 -1 59 8 0 9 3 1 8 -5 4 -10 18 -10 32 0 14 5 28 10 32 7
5 7 8 -1 8 -7 0 -13 5 -13 11 0 5 6 7 13 3 9 -6 9 -4 1 7 -15 20 -15 59 -1 59
8 0 9 3 1 8 -5 4 -10 18 -10 32 0 14 5 28 10 32 7 5 7 8 -1 8 -7 0 -13 5 -13
11 0 5 6 7 13 3 9 -6 9 -4 1 7 -14 18 -14 52 0 61 8 6 8 8 0 8 -6 0 -11 11
-11 25 0 13 3 23 6 20 4 -2 13 1 21 6 12 8 11 9 -5 7 -17 -3 -20 3 -21 35 0
20 3 37 8 37 4 0 8 5 8 11 0 5 -4 8 -8 5 -5 -3 -9 30 -8 74 0 70 2 78 16 67
10 -8 9 -5 -2 9 -22 26 -22 31 0 37 16 4 16 5 0 6 -10 0 -18 6 -18 12 0 5 6 7
13 3 9 -6 9 -4 0 7 -17 18 -16 29 3 29 9 0 12 -5 8 -12 -4 -7 -3 -8 5 -4 14 9
5 26 -13 26 -16 0 -18 62 -2 72 7 5 6 8 -4 8 -13 0 -13 1 0 10 10 6 11 10 3
10 -21 0 -15 26 10 44 l22 17 -22 -11 c-14 -6 -23 -7 -23 -1 0 5 6 12 13 14 9
4 9 6 0 6 -7 1 -13 5 -13 10 0 6 9 8 20 6 12 -2 18 0 15 6 -4 5 -10 7 -15 4
-5 -3 -11 -1 -15 5 -3 5 -1 10 4 10 6 0 11 5 11 11 0 5 -4 8 -8 5 -5 -3 -9 11
-10 30 -1 19 2 33 6 30 4 -3 14 0 22 5 12 8 11 9 -4 7 -10 -2 -21 3 -24 11 -3
10 0 11 9 5 11 -6 12 -5 3 7 -13 16 -15 49 -2 49 4 0 8 5 8 11 0 5 -4 8 -8 5
-5 -3 -9 30 -8 74 0 70 2 78 16 67 10 -8 9 -5 -2 9 -22 26 -22 31 0 37 16 4
16 5 0 6 -10 0 -18 6 -18 12 0 5 6 7 13 3 9 -6 9 -4 -1 7 -16 18 -15 29 4 29
9 0 12 -5 8 -12 -4 -7 -3 -8 5 -4 14 9 5 26 -13 26 -16 0 -18 62 -2 72 7 5 6
8 -4 8 -13 0 -13 1 0 10 10 6 11 10 3 10 -21 0 -15 26 10 44 l22 17 -22 -11
c-14 -6 -23 -7 -23 -1 0 5 6 12 13 14 9 4 9 6 0 6 -7 1 -13 5 -13 10 0 6 9 8
20 6 12 -2 18 0 15 6 -4 5 -10 7 -15 4 -5 -3 -11 -1 -15 5 -3 5 -1 10 4 10 6
0 11 5 11 11 0 5 -4 8 -8 5 -5 -3 -9 11 -10 30 -1 19 2 33 6 30 4 -3 14 0 22
5 12 8 11 9 -5 7 -17 -3 -20 3 -21 35 0 20 3 37 8 37 4 0 8 5 8 11 0 5 -4 8
-8 5 -5 -3 -9 30 -8 74 0 70 2 78 16 67 10 -8 9 -5 -2 9 -10 11 -18 23 -18 27
0 3 8 8 18 10 16 4 16 5 0 6 -10 0 -18 6 -18 12 0 5 6 7 13 3 9 -6 9 -4 -1 7
-16 18 -15 29 4 29 9 0 12 -5 8 -12 -4 -7 -3 -8 5 -4 14 9 5 26 -13 26 -16 0
-18 62 -2 72 7 5 6 8 -4 8 -13 0 -13 1 0 10 10 6 11 10 3 10 -21 0 -15 26 10
44 l22 17 -22 -11 c-14 -6 -23 -7 -23 -1 0 5 6 12 13 14 10 4 10 6 0 6 -7 1
-13 5 -13 10 0 6 9 8 20 6 12 -2 18 0 15 6 -4 5 -10 7 -15 4 -5 -3 -11 -1 -15
5 -3 5 -1 10 4 10 6 0 11 5 11 11 0 5 -4 8 -8 5 -5 -3 -9 11 -10 30 -1 19 2
33 6 30 4 -3 14 0 22 5 12 8 11 9 -4 7 -10 -2 -21 3 -24 11 -3 10 0 11 9 5 11
-6 12 -5 3 7 -13 16 -15 49 -2 49 4 0 8 5 8 11 0 5 -4 8 -8 5 -5 -3 -9 30 -8
74 0 70 2 78 16 67 10 -8 9 -5 -2 9 -10 11 -18 23 -18 27 0 3 8 8 18 10 16 4
16 5 0 6 -10 0 -18 6 -18 12 0 5 6 7 13 3 10 -6 10 -4 0 7 -17 18 -16 29 3 29
9 0 12 -5 8 -12 -4 -7 -3 -8 5 -4 14 9 5 26 -13 26 -16 0 -18 62 -2 72 7 5 6
8 -4 8 -13 0 -13 1 0 10 10 6 11 10 3 10 -21 0 -15 26 10 44 l22 17 -22 -11
c-14 -6 -23 -7 -23 -1 0 5 6 12 13 14 10 4 10 6 0 6 -7 1 -13 5 -13 10 0 6 9
8 20 6 12 -2 18 0 15 6 -4 5 -10 7 -15 4 -5 -3 -11 -1 -15 5 -3 5 -1 10 4 10
6 0 11 5 11 11 0 5 -4 8 -8 5 -5 -3 -9 11 -10 30 -1 19 2 33 6 30 4 -3 14 0
22 5 12 8 11 9 -5 7 -17 -3 -20 3 -21 35 0 20 3 37 8 37 4 0 8 5 8 11 0 5 -4
8 -8 5 -5 -3 -9 30 -8 74 0 70 2 78 16 67 10 -8 9 -5 -2 9 -22 26 -22 31 0 37
16 4 16 5 0 6 -10 0 -18 6 -18 12 0 5 6 7 13 3 10 -6 10 -4 0 7 -17 18 -16 29
3 29 9 0 12 -5 8 -12 -4 -7 -3 -8 5 -4 14 9 5 26 -13 26 -16 0 -18 62 -2 72 7
5 6 8 -4 8 -13 0 -13 1 0 10 10 6 11 10 3 10 -21 0 -15 26 10 44 l22 17 -22
-11 c-14 -6 -23 -7 -23 -1 0 5 6 12 13 14 9 4 9 6 0 6 -7 1 -13 5 -13 10 0 6
9 8 20 6 12 -2 18 0 15 6 -4 5 -10 7 -15 4 -5 -3 -11 -1 -15 5 -3 5 -1 10 4
10 6 0 11 5 11 11 0 5 -4 8 -8 5 -5 -3 -9 11 -10 30 -1 19 2 33 6 30 4 -3 14
0 22 5 12 8 11 9 -4 7 -10 -2 -21 3 -24 11 -3 10 0 11 9 5 11 -6 12 -5 3 7
-13 16 -15 49 -2 49 4 0 8 5 8 11 0 5 -4 8 -8 5 -5 -3 -9 30 -8 74 0 70 2 78
16 67 10 -8 9 -5 -2 9 -22 26 -22 31 0 37 16 4 16 5 0 6 -10 0 -18 6 -18 12 0
5 6 7 13 3 10 -6 10 -4 0 7 -17 18 -16 29 3 29 9 0 12 -5 8 -12 -4 -7 -3 -8 5
-4 14 9 5 26 -13 26 -16 0 -18 62 -2 72 7 5 6 8 -4 8 -13 0 -13 1 0 10 10 6
11 10 3 10 -21 0 -15 26 10 44 l22 17 -22 -11 c-14 -6 -23 -7 -23 -1 0 5 6 12
13 14 10 4 10 6 0 6 -7 1 -13 5 -13 10 0 6 9 8 20 6 12 -2 18 0 15 6 -4 5 -10
7 -15 4 -5 -3 -11 -1 -15 5 -3 5 -1 10 4 10 6 0 11 5 11 11 0 5 -4 8 -8 5 -5
-3 -9 11 -10 30 -1 19 2 33 6 30 4 -3 14 0 22 5 12 8 11 9 -5 7 -17 -3 -20 3
-21 35 0 20 3 37 8 37 4 0 8 5 8 11 0 5 -4 8 -8 5 -5 -3 -9 30 -8 74 0 70 2
78 16 67 10 -8 9 -5 -2 9 -22 26 -22 31 0 37 16 4 16 5 0 6 -10 0 -18 6 -18
12 0 5 6 7 13 3 10 -6 10 -4 0 7 -17 18 -16 29 3 29 9 0 12 -5 8 -12 -4 -7 -3
-8 5 -4 14 9 5 26 -13 26 -16 0 -18 62 -2 72 7 5 6 8 -4 8 -13 0 -13 1 0 10
10 6 11 10 3 10 -21 0 -15 26 10 44 l22 17 -22 -11 c-14 -6 -23 -7 -23 -1 0 5
6 12 13 14 10 4 10 6 0 6 -7 1 -13 5 -13 10 0 6 9 8 20 6 12 -2 18 0 15 6 -4
5 -10 7 -15 4 -5 -3 -11 -1 -15 5 -3 5 -1 10 4 10 6 0 11 5 11 11 0 5 -4 8 -8
5 -5 -3 -9 11 -10 30 -1 19 2 33 6 30 4 -3 14 0 22 5 12 8 11 9 -4 7 -10 -2
-21 3 -24 11 -3 10 0 11 9 5 11 -6 12 -5 3 7 -13 16 -15 49 -2 49 4 0 8 5 8
11 0 5 -4 8 -8 5 -5 -3 -9 33 -8 79 0 47 3 85 8 85 4 0 8 5 8 11 0 5 -4 8 -8
5 -5 -3 -9 14 -9 37 -1 23 -1 53 -2 67 l-1 25 -107 -1 c-94 -2 -105 0 -88 12
25 19 15 18 -24 -2 -30 -15 -34 -15 -54 2 -19 16 -20 17 -8 2 8 -11 9 -18 3
-18 -6 0 -14 5 -17 10 -5 8 -11 7 -21 -1 -11 -9 -19 -8 -37 7 -14 13 -17 13
-9 3 11 -15 5 -16 -66 -14 -43 1 -84 5 -92 10 -8 5 -11 4 -7 -2 4 -6 -27 -10
-88 -9 -81 1 -92 3 -82 16 6 8 2 6 -11 -4 -22 -19 -22 -19 -44 0 -19 15 -20
16 -9 2 8 -11 9 -18 3 -18 -6 0 -14 5 -17 10 -5 8 -11 7 -21 -1 -11 -9 -19 -8
-37 7 -18 16 -19 16 -8 2 12 -16 10 -18 -27 -14 -22 2 -46 7 -53 12 -7 4 -10
3 -5 -4 4 -7 -1 -10 -14 -9 -11 1 -20 8 -21 17 0 13 -1 13 -7 0 -4 -9 -22 -15
-44 -16 -22 -1 -35 3 -32 8 4 6 -2 6 -13 -1 -31 -16 -63 -10 -64 14 0 19 -1
19 -9 -2 -5 -13 -17 -23 -27 -23 -17 1 -16 2 1 15 26 19 17 19 -23 -1 -30 -15
-34 -15 -54 2 -19 16 -20 17 -8 2 8 -11 9 -18 3 -18 -6 0 -14 5 -17 10 -5 8
-11 7 -21 -1 -11 -9 -19 -8 -37 7 -14 13 -17 13 -9 3 11 -15 5 -16 -66 -14
-43 1 -84 5 -92 10 -8 5 -11 4 -7 -2 8 -13 -172 -11 -192 1 -9 6 -12 5 -7 -2
4 -7 -1 -10 -14 -9 -11 1 -20 8 -20 17 -1 12 -3 11 -11 -3 -9 -15 -13 -16 -27
-5 -9 7 -13 8 -9 2 4 -7 -8 -10 -33 -10 -34 0 -36 2 -22 14 14 11 13 11 -8 0
-18 -9 -86 -13 -247 -13 -122 0 -221 2 -221 5 1 19 -4 30 -13 30 -8 0 -8 -5 1
-15 7 -8 11 -16 9 -16 -12 -5 -957 -4 -957 1 1 18 -4 30 -13 30 -8 0 -8 -5 1
-15 7 -8 11 -16 9 -16 -2 -1 -104 -2 -226 -3 -199 -2 -221 0 -210 14 6 8 1 6
-11 -4 -20 -17 -28 -18 -62 -9 -22 5 -37 6 -34 2 2 -4 -5 -7 -16 -6 -11 1 -20
8 -21 17 0 13 -1 13 -7 0 -4 -9 -22 -15 -44 -16 -22 -1 -35 3 -32 8 4 6 -2 6
-13 -1 -31 -16 -63 -10 -64 14 0 19 -1 19 -9 -2 -5 -13 -17 -23 -27 -23 -17 1
-16 2 1 15 26 19 17 19 -23 -1 -30 -15 -34 -15 -54 2 -19 16 -20 17 -8 2 8
-11 9 -18 3 -18 -6 0 -14 5 -17 10 -5 8 -11 7 -21 -1 -11 -9 -19 -8 -37 7 -14
13 -17 13 -9 3 11 -15 5 -16 -66 -14 -43 1 -84 5 -92 10 -8 5 -11 4 -7 -2 4
-6 -27 -10 -88 -9 -81 1 -92 3 -82 16 6 8 2 6 -11 -4 -22 -19 -22 -19 -44 0
-19 15 -20 16 -9 2 8 -11 9 -18 3 -18 -6 0 -14 5 -17 10 -5 8 -11 7 -21 -1
-11 -9 -19 -8 -37 7 -18 16 -19 16 -8 2 12 -16 10 -18 -27 -14 -22 2 -46 7
-53 12 -7 4 -10 3 -5 -4 4 -7 -1 -10 -14 -9 -11 1 -20 8 -21 17 0 13 -1 13 -7
0 -4 -9 -22 -15 -44 -16 -22 -1 -35 3 -32 8 4 6 -3 5 -15 -1 -29 -16 -55 -10
-62 14 -5 19 -5 19 -11 -2z"/>
<path d="M957 5753 c-10 -9 -9 -23 1 -23 5 0 9 7 9 15 0 17 -1 18 -10 8z"/>
<path d="M1435 5751 c-3 -5 -2 -12 3 -15 5 -3 9 1 9 9 0 17 -3 19 -12 6z"/>
<path d="M2220 5750 c0 -5 -7 -7 -15 -4 -8 4 -15 2 -15 -4 0 -14 33 -8 38 6 2
7 1 12 -2 12 -3 0 -6 -4 -6 -10z"/>
<path d="M2370 5751 c0 -6 4 -13 10 -16 6 -3 7 1 4 9 -7 18 -14 21 -14 7z"/>
<path d="M2470 5751 c0 -5 7 -11 14 -14 10 -4 13 -1 9 9 -6 15 -23 19 -23 5z"/>
<path d="M2550 5751 c0 -6 5 -13 12 -17 6 -4 8 -3 4 4 -3 5 0 13 6 15 8 3 6 6
-4 6 -10 1 -18 -3 -18 -8z"/>
<path d="M2589 5743 c-13 -16 -12 -17 4 -4 9 7 17 15 17 17 0 8 -8 3 -21 -13z"/>
<path d="M2826 5747 c-16 -12 -16 -13 3 -13 11 0 18 3 15 7 -2 4 2 10 8 12 7
3 8 6 2 6 -5 1 -18 -5 -28 -12z"/>
<path d="M2872 5747 c-8 -10 -6 -13 7 -13 11 0 17 6 14 13 -3 7 -6 13 -8 13
-1 0 -7 -6 -13 -13z"/>
<path d="M2950 5751 c0 -5 7 -11 14 -14 10 -4 13 -1 9 9 -6 15 -23 19 -23 5z"/>
<path d="M3030 5752 c0 -14 28 -23 36 -11 3 6 3 13 0 16 -3 4 -6 1 -6 -7 0
-10 -3 -10 -15 0 -9 7 -15 8 -15 2z"/>
<path d="M3157 5753 c-10 -9 -9 -23 1 -23 5 0 9 7 9 15 0 17 -1 18 -10 8z"/>
<path d="M3330 5751 c0 -6 4 -13 10 -16 6 -3 7 1 4 9 -7 18 -14 21 -14 7z"/>
<path d="M3430 5751 c0 -5 7 -11 14 -14 10 -4 13 -1 9 9 -6 15 -23 19 -23 5z"/>
<path d="M3510 5751 c0 -6 5 -13 12 -17 6 -4 8 -3 4 4 -3 5 0 13 6 15 8 3 6 6
-4 6 -10 1 -18 -3 -18 -8z"/>
<path d="M3549 5743 c-13 -16 -12 -17 4 -4 9 7 17 15 17 17 0 8 -8 3 -21 -13z"/>
<path d="M3773 5746 c0 -7 9 -12 19 -12 10 0 18 3 18 7 0 4 -8 9 -18 11 -10 3
-19 0 -19 -6z"/>
<path d="M3870 5745 c0 -8 2 -15 4 -15 2 0 6 7 10 15 3 8 1 15 -4 15 -6 0 -10
-7 -10 -15z"/>
<path d="M4315 5751 c-3 -5 -2 -12 3 -15 5 -3 9 1 9 9 0 17 -3 19 -12 6z"/>
<path d="M4797 5753 c-10 -9 -9 -23 1 -23 5 0 9 7 9 15 0 17 -1 18 -10 8z"/>
<path d="M5275 5751 c-3 -5 -2 -12 3 -15 5 -3 9 1 9 9 0 17 -3 19 -12 6z"/>
<path d="M5500 5751 c0 -6 4 -13 10 -16 6 -3 7 1 4 9 -7 18 -14 21 -14 7z"/>
<path d="M5535 5748 c6 -16 55 -22 55 -8 0 5 -8 7 -17 5 -10 -1 -24 2 -31 8
-9 7 -11 6 -7 -5z"/>
<path d="M830 5739 c0 -5 5 -7 10 -4 6 3 10 8 10 11 0 2 -4 4 -10 4 -5 0 -10
-5 -10 -11z"/>
<path d="M1228 5738 c5 -5 16 -8 23 -6 8 3 3 7 -10 11 -17 4 -21 3 -13 -5z"/>
<path d="M1350 5739 c0 -5 5 -7 10 -4 6 3 10 8 10 11 0 2 -4 4 -10 4 -5 0 -10
-5 -10 -11z"/>
<path d="M1790 5739 c0 -5 5 -7 10 -4 6 3 10 8 10 11 0 2 -4 4 -10 4 -5 0 -10
-5 -10 -11z"/>
<path d="M1910 5740 c0 -6 7 -10 15 -10 8 0 15 2 15 4 0 2 -7 6 -15 10 -8 3
-15 1 -15 -4z"/>
<path d="M2035 5739 c-3 -4 2 -6 10 -5 21 3 28 13 10 13 -9 0 -18 -4 -20 -8z"/>
<path d="M2110 5739 c0 -5 5 -7 10 -4 6 3 10 8 10 11 0 2 -4 4 -10 4 -5 0 -10
-5 -10 -11z"/>
<path d="M2284 5743 c4 -4 16 -8 28 -10 28 -4 18 6 -12 12 -12 2 -20 1 -16 -2z"/>
<path d="M2685 5741 c3 -3 17 -6 31 -7 13 0 22 2 19 5 -3 3 -17 6 -31 7 -13 0
-22 -2 -19 -5z"/>
<path d="M2756 5742 c-2 -4 4 -8 14 -8 10 0 16 4 14 8 -3 4 -9 8 -14 8 -5 0
-11 -4 -14 -8z"/>
<path d="M3244 5743 c4 -4 16 -8 28 -10 28 -4 18 6 -12 12 -12 2 -20 1 -16 -2z"/>
<path d="M3645 5741 c3 -3 17 -6 31 -7 13 0 22 2 19 5 -3 3 -17 6 -31 7 -13 0
-22 -2 -19 -5z"/>
<path d="M3718 5738 c-9 -5 -6 -7 9 -5 12 2 25 6 28 8 8 9 -23 6 -37 -3z"/>
<path d="M4108 5738 c5 -5 16 -8 23 -6 8 3 3 7 -10 11 -17 4 -21 3 -13 -5z"/>
<path d="M4230 5739 c0 -5 5 -7 10 -4 6 3 10 8 10 11 0 2 -4 4 -10 4 -5 0 -10
-5 -10 -11z"/>
<path d="M4670 5739 c0 -5 5 -7 10 -4 6 3 10 8 10 11 0 2 -4 4 -10 4 -5 0 -10
-5 -10 -11z"/>
<path d="M5068 5738 c5 -5 16 -8 23 -6 8 3 3 7 -10 11 -17 4 -21 3 -13 -5z"/>
<path d="M5190 5739 c0 -5 5 -7 10 -4 6 3 10 8 10 11 0 2 -4 4 -10 4 -5 0 -10
-5 -10 -11z"/>
<path d="M5680 5651 c0 -6 4 -13 10 -16 6 -3 7 1 4 9 -7 18 -14 21 -14 7z"/>
<path d="M238 5553 c7 -3 16 -2 19 1 4 3 -2 6 -13 5 -11 0 -14 -3 -6 -6z"/>
<path d="M5680 5539 c0 -5 5 -7 10 -4 6 3 10 8 10 11 0 2 -4 4 -10 4 -5 0 -10
-5 -10 -11z"/>
<path d="M5683 5505 c0 -8 4 -12 9 -9 5 3 6 10 3 15 -9 13 -12 11 -12 -6z"/>
<path d="M5686 5465 c-3 -8 -1 -15 4 -15 6 0 10 7 10 15 0 8 -2 15 -4 15 -2 0
-6 -7 -10 -15z"/>
<path d="M226 5422 c-3 -5 1 -9 9 -9 8 0 12 4 9 9 -3 4 -7 8 -9 8 -2 0 -6 -4
-9 -8z"/>
<path d="M5686 5373 c-6 -14 -5 -15 5 -6 7 7 10 15 7 18 -3 3 -9 -2 -12 -12z"/>
<path d="M235 5330 c-16 -17 -16 -20 -3 -15 9 4 19 13 22 21 7 19 2 18 -19 -6z"/>
<path d="M5690 5300 c-9 -6 -10 -10 -3 -10 6 0 15 5 18 10 8 12 4 12 -15 0z"/>
<path d="M226 5182 c-3 -5 1 -9 9 -9 8 0 12 4 9 9 -3 4 -7 8 -9 8 -2 0 -6 -4
-9 -8z"/>
<path d="M247 5145 c-4 -8 -3 -16 1 -19 4 -3 9 4 9 15 2 23 -3 25 -10 4z"/>
<path d="M5692 5151 c-11 -7 -11 -9 0 -14 9 -3 15 1 15 9 0 8 -1 14 -1 14 -1
0 -7 -4 -14 -9z"/>
<path d="M240 5090 c-6 -11 -8 -20 -6 -20 3 0 10 9 16 20 6 11 8 20 6 20 -3 0
-10 -9 -16 -20z"/>
<path d="M5720 4940 c-9 -6 -10 -10 -3 -10 6 0 15 5 18 10 8 12 4 12 -15 0z"/>
<path d="M226 4921 c-4 -5 3 -7 14 -4 23 6 26 13 6 13 -8 0 -17 -4 -20 -9z"/>
<path d="M5683 4865 c0 -8 4 -12 9 -9 5 3 6 10 3 15 -9 13 -12 11 -12 -6z"/>
<path d="M5686 4825 c-3 -8 -1 -15 4 -15 6 0 10 7 10 15 0 8 -2 15 -4 15 -2 0
-6 -7 -10 -15z"/>
<path d="M226 4761 c-4 -5 3 -7 14 -4 23 6 26 13 6 13 -8 0 -17 -4 -20 -9z"/>
<path d="M245 4661 c-3 -5 -2 -12 3 -15 5 -3 9 1 9 9 0 17 -3 19 -12 6z"/>
<path d="M5690 4660 c-9 -6 -10 -10 -3 -10 6 0 15 5 18 10 8 12 4 12 -15 0z"/>
<path d="M240 4610 c-6 -11 -8 -20 -6 -20 3 0 10 9 16 20 6 11 8 20 6 20 -3 0
-10 -9 -16 -20z"/>
<path d="M5692 4511 c-11 -7 -11 -9 0 -14 9 -3 15 1 15 9 0 8 -1 14 -1 14 -1
0 -7 -4 -14 -9z"/>
<path d="M226 4462 c-3 -5 1 -9 9 -9 8 0 12 4 9 9 -3 4 -7 8 -9 8 -2 0 -6 -4
-9 -8z"/>
<path d="M235 4370 c-16 -17 -16 -20 -3 -15 9 4 19 13 22 21 7 19 2 18 -19 -6z"/>
<path d="M5720 4300 c-9 -6 -10 -10 -3 -10 6 0 15 5 18 10 8 12 4 12 -15 0z"/>
<path d="M5683 4225 c0 -8 4 -12 9 -9 5 3 6 10 3 15 -9 13 -12 11 -12 -6z"/>
<path d="M226 4222 c-3 -5 1 -9 9 -9 8 0 12 4 9 9 -3 4 -7 8 -9 8 -2 0 -6 -4
-9 -8z"/>
<path d="M247 4185 c-4 -8 -3 -16 1 -19 4 -3 9 4 9 15 2 23 -3 25 -10 4z"/>
<path d="M5686 4185 c-3 -8 -1 -15 4 -15 6 0 10 7 10 15 0 8 -2 15 -4 15 -2 0
-6 -7 -10 -15z"/>
<path d="M240 4130 c-6 -11 -8 -20 -6 -20 3 0 10 9 16 20 6 11 8 20 6 20 -3 0
-10 -9 -16 -20z"/>
<path d="M5686 4093 c-6 -14 -5 -15 5 -6 7 7 10 15 7 18 -3 3 -9 -2 -12 -12z"/>
<path d="M5690 4020 c-9 -6 -10 -10 -3 -10 6 0 15 5 18 10 8 12 4 12 -15 0z"/>
<path d="M226 3961 c-4 -5 3 -7 14 -4 23 6 26 13 6 13 -8 0 -17 -4 -20 -9z"/>
<path d="M5692 3871 c-11 -7 -11 -9 0 -14 9 -3 15 1 15 9 0 8 -1 14 -1 14 -1
0 -7 -4 -14 -9z"/>
<path d="M226 3801 c-4 -5 3 -7 14 -4 23 6 26 13 6 13 -8 0 -17 -4 -20 -9z"/>
<path d="M245 3701 c-3 -5 -2 -12 3 -15 5 -3 9 1 9 9 0 17 -3 19 -12 6z"/>
<path d="M240 3650 c-6 -11 -8 -20 -6 -20 3 0 10 9 16 20 6 11 8 20 6 20 -3 0
-10 -9 -16 -20z"/>
<path d="M5720 3660 c-9 -6 -10 -10 -3 -10 6 0 15 5 18 10 8 12 4 12 -15 0z"/>
<path d="M5683 3585 c0 -8 4 -12 9 -9 5 3 6 10 3 15 -9 13 -12 11 -12 -6z"/>
<path d="M5686 3545 c-3 -8 -1 -15 4 -15 6 0 10 7 10 15 0 8 -2 15 -4 15 -2 0
-6 -7 -10 -15z"/>
<path d="M226 3502 c-3 -5 1 -9 9 -9 8 0 12 4 9 9 -3 4 -7 8 -9 8 -2 0 -6 -4
-9 -8z"/>
<path d="M235 3410 c-16 -17 -16 -20 -3 -15 9 4 19 13 22 21 7 19 2 18 -19 -6z"/>
<path d="M5690 3380 c-9 -6 -10 -10 -3 -10 6 0 15 5 18 10 8 12 4 12 -15 0z"/>
<path d="M226 3262 c-3 -5 1 -9 9 -9 8 0 12 4 9 9 -3 4 -7 8 -9 8 -2 0 -6 -4
-9 -8z"/>
<path d="M247 3225 c-4 -8 -3 -16 1 -19 4 -3 9 4 9 15 2 23 -3 25 -10 4z"/>
<path d="M5692 3231 c-11 -7 -11 -9 0 -14 9 -3 15 1 15 9 0 8 -1 14 -1 14 -1
0 -7 -4 -14 -9z"/>
<path d="M240 3170 c-6 -11 -8 -20 -6 -20 3 0 10 9 16 20 6 11 8 20 6 20 -3 0
-10 -9 -16 -20z"/>
<path d="M5720 3020 c-9 -6 -10 -10 -3 -10 6 0 15 5 18 10 8 12 4 12 -15 0z"/>
<path d="M226 3001 c-4 -5 3 -7 14 -4 23 6 26 13 6 13 -8 0 -17 -4 -20 -9z"/>
<path d="M5683 2945 c0 -8 4 -12 9 -9 5 3 6 10 3 15 -9 13 -12 11 -12 -6z"/>
<path d="M5686 2905 c-3 -8 -1 -15 4 -15 6 0 10 7 10 15 0 8 -2 15 -4 15 -2 0
-6 -7 -10 -15z"/>
<path d="M226 2841 c-4 -5 3 -7 14 -4 23 6 26 13 6 13 -8 0 -17 -4 -20 -9z"/>
<path d="M5686 2813 c-6 -14 -5 -15 5 -6 7 7 10 15 7 18 -3 3 -9 -2 -12 -12z"/>
<path d="M245 2741 c-3 -5 -2 -12 3 -15 5 -3 9 1 9 9 0 17 -3 19 -12 6z"/>
<path d="M5690 2740 c-9 -6 -10 -10 -3 -10 6 0 15 5 18 10 8 12 4 12 -15 0z"/>
<path d="M240 2690 c-6 -11 -8 -20 -6 -20 3 0 10 9 16 20 6 11 8 20 6 20 -3 0
-10 -9 -16 -20z"/>
<path d="M5692 2591 c-11 -7 -11 -9 0 -14 9 -3 15 1 15 9 0 8 -1 14 -1 14 -1
0 -7 -4 -14 -9z"/>
<path d="M226 2542 c-3 -5 1 -9 9 -9 8 0 12 4 9 9 -3 4 -7 8 -9 8 -2 0 -6 -4
-9 -8z"/>
<path d="M235 2450 c-16 -17 -16 -20 -3 -15 9 4 19 13 22 21 7 19 2 18 -19 -6z"/>
<path d="M5720 2380 c-9 -6 -10 -10 -3 -10 6 0 15 5 18 10 8 12 4 12 -15 0z"/>
<path d="M5683 2305 c0 -8 4 -12 9 -9 5 3 6 10 3 15 -9 13 -12 11 -12 -6z"/>
<path d="M226 2302 c-3 -5 1 -9 9 -9 8 0 12 4 9 9 -3 4 -7 8 -9 8 -2 0 -6 -4
-9 -8z"/>
<path d="M247 2265 c-4 -8 -3 -16 1 -19 4 -3 9 4 9 15 2 23 -3 25 -10 4z"/>
<path d="M5686 2265 c-3 -8 -1 -15 4 -15 6 0 10 7 10 15 0 8 -2 15 -4 15 -2 0
-6 -7 -10 -15z"/>
<path d="M240 2210 c-6 -11 -8 -20 -6 -20 3 0 10 9 16 20 6 11 8 20 6 20 -3 0
-10 -9 -16 -20z"/>
<path d="M5690 2100 c-9 -6 -10 -10 -3 -10 6 0 15 5 18 10 8 12 4 12 -15 0z"/>
<path d="M226 2041 c-4 -5 3 -7 14 -4 23 6 26 13 6 13 -8 0 -17 -4 -20 -9z"/>
<path d="M5692 1951 c-11 -7 -11 -9 0 -14 9 -3 15 1 15 9 0 8 -1 14 -1 14 -1
0 -7 -4 -14 -9z"/>
<path d="M226 1881 c-4 -5 3 -7 14 -4 23 6 26 13 6 13 -8 0 -17 -4 -20 -9z"/>
<path d="M245 1781 c-3 -5 -2 -12 3 -15 5 -3 9 1 9 9 0 17 -3 19 -12 6z"/>
<path d="M240 1730 c-6 -11 -8 -20 -6 -20 3 0 10 9 16 20 6 11 8 20 6 20 -3 0
-10 -9 -16 -20z"/>
<path d="M5720 1740 c-9 -6 -10 -10 -3 -10 6 0 15 5 18 10 8 12 4 12 -15 0z"/>
<path d="M5683 1665 c0 -8 4 -12 9 -9 5 3 6 10 3 15 -9 13 -12 11 -12 -6z"/>
<path d="M5686 1625 c-3 -8 -1 -15 4 -15 6 0 10 7 10 15 0 8 -2 15 -4 15 -2 0
-6 -7 -10 -15z"/>
<path d="M226 1582 c-3 -5 1 -9 9 -9 8 0 12 4 9 9 -3 4 -7 8 -9 8 -2 0 -6 -4
-9 -8z"/>
<path d="M5686 1533 c-6 -14 -5 -15 5 -6 7 7 10 15 7 18 -3 3 -9 -2 -12 -12z"/>
<path d="M235 1490 c-16 -17 -16 -20 -3 -15 9 4 19 13 22 21 7 19 2 18 -19 -6z"/>
<path d="M5690 1460 c-9 -6 -10 -10 -3 -10 6 0 15 5 18 10 8 12 4 12 -15 0z"/>
<path d="M226 1342 c-3 -5 1 -9 9 -9 8 0 12 4 9 9 -3 4 -7 8 -9 8 -2 0 -6 -4
-9 -8z"/>
<path d="M247 1305 c-4 -8 -3 -16 1 -19 4 -3 9 4 9 15 2 23 -3 25 -10 4z"/>
<path d="M5692 1311 c-11 -7 -11 -9 0 -14 9 -3 15 1 15 9 0 8 -1 14 -1 14 -1
0 -7 -4 -14 -9z"/>
<path d="M240 1250 c-6 -11 -8 -20 -6 -20 3 0 10 9 16 20 6 11 8 20 6 20 -3 0
-10 -9 -16 -20z"/>
<path d="M5720 1100 c-9 -6 -10 -10 -3 -10 6 0 15 5 18 10 8 12 4 12 -15 0z"/>
<path d="M226 1081 c-4 -5 3 -7 14 -4 23 6 26 13 6 13 -8 0 -17 -4 -20 -9z"/>
<path d="M5683 1025 c0 -8 4 -12 9 -9 5 3 6 10 3 15 -9 13 -12 11 -12 -6z"/>
<path d="M5686 985 c-3 -8 -1 -15 4 -15 6 0 10 7 10 15 0 8 -2 15 -4 15 -2 0
-6 -7 -10 -15z"/>
<path d="M226 921 c-4 -5 3 -7 14 -4 23 6 26 13 6 13 -8 0 -17 -4 -20 -9z"/>
<path d="M245 821 c-3 -5 -2 -12 3 -15 5 -3 9 1 9 9 0 17 -3 19 -12 6z"/>
<path d="M5696 813 c-6 -14 -5 -15 5 -6 7 7 10 15 7 18 -3 3 -9 -2 -12 -12z"/>
<path d="M240 770 c-6 -11 -8 -20 -6 -20 3 0 10 9 16 20 6 11 8 20 6 20 -3 0
-10 -9 -16 -20z"/>
<path d="M5690 745 c0 -5 5 -17 10 -25 5 -8 10 -10 10 -5 0 6 -5 17 -10 25 -5
8 -10 11 -10 5z"/>
<path d="M5695 680 c-3 -5 -1 -10 4 -10 6 0 11 5 11 10 0 6 -2 10 -4 10 -3 0
-8 -4 -11 -10z"/>
<path d="M226 622 c-3 -5 1 -9 9 -9 8 0 12 4 9 9 -3 4 -7 8 -9 8 -2 0 -6 -4
-9 -8z"/>
<path d="M5690 585 c0 -5 5 -17 10 -25 5 -8 10 -10 10 -5 0 6 -5 17 -10 25 -5
8 -10 11 -10 5z"/>
<path d="M235 530 c-16 -17 -16 -20 -3 -15 9 4 19 13 22 21 7 19 2 18 -19 -6z"/>
<path d="M5695 520 c-3 -5 -1 -10 4 -10 6 0 11 5 11 10 0 6 -2 10 -4 10 -3 0
-8 -4 -11 -10z"/>
<path d="M5690 425 c0 -5 5 -17 10 -25 5 -8 10 -10 10 -5 0 6 -5 17 -10 25 -5
8 -10 11 -10 5z"/>
<path d="M226 382 c-3 -5 1 -9 9 -9 8 0 12 4 9 9 -3 4 -7 8 -9 8 -2 0 -6 -4
-9 -8z"/>
<path d="M2015 220 c-3 -5 -1 -10 4 -10 6 0 11 5 11 10 0 6 -2 10 -4 10 -3 0
-8 -4 -11 -10z"/>
<path d="M3830 211 c0 -6 4 -12 8 -15 5 -3 9 1 9 9 0 8 -4 15 -9 15 -4 0 -8
-4 -8 -9z"/>
<path d="M340 206 c0 -2 7 -7 16 -10 8 -3 12 -2 9 4 -6 10 -25 14 -25 6z"/>
<path d="M390 200 c0 -5 5 -10 10 -10 6 0 10 5 10 10 0 6 -4 10 -10 10 -5 0
-10 -4 -10 -10z"/>
<path d="M453 189 c-2 -23 3 -25 10 -4 4 8 3 16 -1 19 -4 3 -9 -4 -9 -15z"/>
<path d="M513 203 c4 -3 -1 -16 -10 -27 -18 -21 -18 -21 5 -2 24 21 29 36 10
36 -6 0 -8 -3 -5 -7z"/>
<path d="M573 189 c-2 -23 3 -25 10 -4 4 8 3 16 -1 19 -4 3 -9 -4 -9 -15z"/>
<path d="M635 201 c3 -6 -3 -14 -12 -20 -10 -6 -13 -11 -7 -11 12 0 34 20 34
32 0 4 -5 8 -11 8 -5 0 -8 -4 -4 -9z"/>
<path d="M693 195 c0 -8 4 -12 9 -9 5 3 6 10 3 15 -9 13 -12 11 -12 -6z"/>
<path d="M753 195 c0 -8 4 -12 9 -9 4 3 8 9 8 15 0 5 -4 9 -8 9 -5 0 -9 -7 -9
-15z"/>
<path d="M814 196 c1 -8 5 -18 8 -22 4 -3 5 1 4 10 -1 8 -5 18 -8 22 -4 3 -5
-1 -4 -10z"/>
<path d="M873 195 c0 -8 4 -12 9 -9 4 3 8 9 8 15 0 5 -4 9 -8 9 -5 0 -9 -7 -9
-15z"/>
<path d="M934 196 c1 -8 5 -18 8 -22 4 -3 5 1 4 10 -1 8 -5 18 -8 22 -4 3 -5
-1 -4 -10z"/>
<path d="M993 195 c0 -8 4 -12 9 -9 4 3 8 9 8 15 0 5 -4 9 -8 9 -5 0 -9 -7 -9
-15z"/>
<path d="M1054 196 c1 -8 5 -18 8 -22 4 -3 5 1 4 10 -1 8 -5 18 -8 22 -4 3 -5
-1 -4 -10z"/>
<path d="M1113 195 c0 -8 4 -12 9 -9 4 3 8 9 8 15 0 5 -4 9 -8 9 -5 0 -9 -7
-9 -15z"/>
<path d="M1174 196 c1 -8 5 -18 8 -22 4 -3 5 1 4 10 -1 8 -5 18 -8 22 -4 3 -5
-1 -4 -10z"/>
<path d="M1233 195 c0 -8 4 -12 9 -9 4 3 8 9 8 15 0 5 -4 9 -8 9 -5 0 -9 -7
-9 -15z"/>
<path d="M1266 202 c-3 -5 1 -9 9 -9 8 0 12 4 9 9 -3 4 -7 8 -9 8 -2 0 -6 -4
-9 -8z"/>
<path d="M1306 202 c-3 -5 1 -9 9 -9 8 0 12 4 9 9 -3 4 -7 8 -9 8 -2 0 -6 -4
-9 -8z"/>
<path d="M1346 202 c-3 -5 1 -9 9 -9 8 0 12 4 9 9 -3 4 -7 8 -9 8 -2 0 -6 -4
-9 -8z"/>
<path d="M1386 202 c-3 -5 1 -9 9 -9 8 0 12 4 9 9 -3 4 -7 8 -9 8 -2 0 -6 -4
-9 -8z"/>
<path d="M1426 202 c-3 -5 1 -9 9 -9 8 0 12 4 9 9 -3 4 -7 8 -9 8 -2 0 -6 -4
-9 -8z"/>
<path d="M1466 202 c-3 -5 1 -9 9 -9 8 0 12 4 9 9 -3 4 -7 8 -9 8 -2 0 -6 -4
-9 -8z"/>
<path d="M1506 202 c-3 -5 1 -9 9 -9 8 0 12 4 9 9 -3 4 -7 8 -9 8 -2 0 -6 -4
-9 -8z"/>
<path d="M1546 202 c-3 -5 1 -9 9 -9 8 0 12 4 9 9 -3 4 -7 8 -9 8 -2 0 -6 -4
-9 -8z"/>
<path d="M1586 202 c-3 -5 1 -9 9 -9 8 0 12 4 9 9 -3 4 -7 8 -9 8 -2 0 -6 -4
-9 -8z"/>
<path d="M1626 202 c-3 -5 1 -9 9 -9 8 0 12 4 9 9 -3 4 -7 8 -9 8 -2 0 -6 -4
-9 -8z"/>
<path d="M1666 202 c-3 -5 1 -9 9 -9 8 0 12 4 9 9 -3 4 -7 8 -9 8 -2 0 -6 -4
-9 -8z"/>
<path d="M1706 202 c-3 -5 1 -9 9 -9 8 0 12 4 9 9 -3 4 -7 8 -9 8 -2 0 -6 -4
-9 -8z"/>
<path d="M1746 202 c-3 -5 1 -9 9 -9 8 0 12 4 9 9 -3 4 -7 8 -9 8 -2 0 -6 -4
-9 -8z"/>
<path d="M1786 202 c-3 -5 1 -9 9 -9 8 0 12 4 9 9 -3 4 -7 8 -9 8 -2 0 -6 -4
-9 -8z"/>
<path d="M1826 202 c-3 -5 1 -9 9 -9 8 0 12 4 9 9 -3 4 -7 8 -9 8 -2 0 -6 -4
-9 -8z"/>
<path d="M1866 202 c-3 -5 1 -9 9 -9 8 0 12 4 9 9 -3 4 -7 8 -9 8 -2 0 -6 -4
-9 -8z"/>
<path d="M1930 200 c0 -5 5 -10 11 -10 5 0 7 5 4 10 -3 6 -8 10 -11 10 -2 0
-4 -4 -4 -10z"/>
<path d="M2110 202 c0 -4 9 -8 19 -8 11 0 17 4 15 8 -7 10 -34 10 -34 0z"/>
<path d="M2170 200 c0 -5 5 -10 11 -10 5 0 7 5 4 10 -3 6 -8 10 -11 10 -2 0
-4 -4 -4 -10z"/>
<path d="M2254 196 c1 -8 5 -18 8 -22 4 -3 5 1 4 10 -1 8 -5 18 -8 22 -4 3 -5
-1 -4 -10z"/>
<path d="M2313 188 c-2 -18 0 -20 7 -8 12 18 13 30 2 30 -4 0 -9 -10 -9 -22z"/>
<path d="M2373 190 c-1 -11 2 -20 7 -20 4 0 7 7 6 15 -3 23 -12 26 -13 5z"/>
<path d="M2433 203 c4 -3 1 -13 -6 -22 -11 -14 -10 -14 6 -2 20 15 22 31 5 31
-6 0 -8 -3 -5 -7z"/>
<path d="M2493 190 c-1 -11 2 -20 7 -20 4 0 7 7 6 15 -3 23 -12 26 -13 5z"/>
<path d="M2553 203 c4 -3 1 -13 -6 -22 -11 -14 -10 -14 6 -2 20 15 22 31 5 31
-6 0 -8 -3 -5 -7z"/>
<path d="M2613 190 c-1 -11 2 -20 7 -20 4 0 7 7 6 15 -3 23 -12 26 -13 5z"/>
<path d="M2673 203 c4 -3 1 -13 -6 -22 -11 -14 -10 -14 6 -2 20 15 22 31 5 31
-6 0 -8 -3 -5 -7z"/>
<path d="M2733 190 c-1 -11 2 -20 7 -20 4 0 7 7 6 15 -3 23 -12 26 -13 5z"/>
<path d="M2793 203 c4 -3 1 -13 -6 -22 -11 -14 -10 -14 6 -2 20 15 22 31 5 31
-6 0 -8 -3 -5 -7z"/>
<path d="M2853 190 c-1 -11 2 -20 7 -20 4 0 7 7 6 15 -3 23 -12 26 -13 5z"/>
<path d="M2913 203 c4 -3 1 -13 -6 -22 -11 -14 -10 -14 6 -2 20 15 22 31 5 31
-6 0 -8 -3 -5 -7z"/>
<path d="M2973 190 c-1 -11 2 -20 7 -20 4 0 7 7 6 15 -3 23 -12 26 -13 5z"/>
<path d="M3033 203 c4 -3 1 -13 -6 -22 -11 -14 -10 -14 6 -2 20 15 22 31 5 31
-6 0 -8 -3 -5 -7z"/>
<path d="M3093 190 c-1 -11 2 -20 7 -20 4 0 7 7 6 15 -3 23 -12 26 -13 5z"/>
<path d="M3180 200 c8 -5 20 -10 25 -10 6 0 3 5 -5 10 -8 5 -19 10 -25 10 -5
0 -3 -5 5 -10z"/>
<path d="M3226 202 c-3 -5 1 -9 9 -9 8 0 12 4 9 9 -3 4 -7 8 -9 8 -2 0 -6 -4
-9 -8z"/>
<path d="M3266 202 c-3 -5 1 -9 9 -9 8 0 12 4 9 9 -3 4 -7 8 -9 8 -2 0 -6 -4
-9 -8z"/>
<path d="M3306 202 c-3 -5 1 -9 9 -9 8 0 12 4 9 9 -3 4 -7 8 -9 8 -2 0 -6 -4
-9 -8z"/>
<path d="M3346 202 c-3 -5 1 -9 9 -9 8 0 12 4 9 9 -3 4 -7 8 -9 8 -2 0 -6 -4
-9 -8z"/>
<path d="M3386 202 c-3 -5 1 -9 9 -9 8 0 12 4 9 9 -3 4 -7 8 -9 8 -2 0 -6 -4
-9 -8z"/>
<path d="M3426 202 c-3 -5 1 -9 9 -9 8 0 12 4 9 9 -3 4 -7 8 -9 8 -2 0 -6 -4
-9 -8z"/>
<path d="M3466 202 c-3 -5 1 -9 9 -9 8 0 12 4 9 9 -3 4 -7 8 -9 8 -2 0 -6 -4
-9 -8z"/>
<path d="M3506 202 c-3 -5 1 -9 9 -9 8 0 12 4 9 9 -3 4 -7 8 -9 8 -2 0 -6 -4
-9 -8z"/>
<path d="M3546 202 c-3 -5 1 -9 9 -9 8 0 12 4 9 9 -3 4 -7 8 -9 8 -2 0 -6 -4
-9 -8z"/>
<path d="M3586 202 c-3 -5 1 -9 9 -9 8 0 12 4 9 9 -3 4 -7 8 -9 8 -2 0 -6 -4
-9 -8z"/>
<path d="M3626 202 c-3 -5 1 -9 9 -9 8 0 12 4 9 9 -3 4 -7 8 -9 8 -2 0 -6 -4
-9 -8z"/>
<path d="M3666 202 c-3 -5 1 -9 9 -9 8 0 12 4 9 9 -3 4 -7 8 -9 8 -2 0 -6 -4
-9 -8z"/>
<path d="M3910 200 c0 -5 5 -10 11 -10 5 0 7 5 4 10 -3 6 -8 10 -11 10 -2 0
-4 -4 -4 -10z"/>
<path d="M3970 200 c0 -5 5 -10 11 -10 5 0 7 5 4 10 -3 6 -8 10 -11 10 -2 0
-4 -4 -4 -10z"/>
<path d="M4053 189 c-2 -23 3 -25 10 -4 4 8 3 16 -1 19 -4 3 -9 -4 -9 -15z"/>
<path d="M4113 203 c4 -3 -1 -16 -10 -27 -18 -21 -18 -21 5 -2 24 21 29 36 10
36 -6 0 -8 -3 -5 -7z"/>
<path d="M4173 189 c-2 -23 3 -25 10 -4 4 8 3 16 -1 19 -4 3 -9 -4 -9 -15z"/>
<path d="M4235 201 c3 -6 -3 -14 -12 -20 -10 -6 -13 -11 -7 -11 12 0 34 20 34
32 0 4 -5 8 -11 8 -5 0 -8 -4 -4 -9z"/>
<path d="M4293 189 c-2 -23 3 -25 10 -4 4 8 3 16 -1 19 -4 3 -9 -4 -9 -15z"/>
<path d="M4355 201 c3 -6 -3 -14 -12 -20 -10 -6 -13 -11 -7 -11 12 0 34 20 34
32 0 4 -5 8 -11 8 -5 0 -8 -4 -4 -9z"/>
<path d="M4413 189 c-2 -23 3 -25 10 -4 4 8 3 16 -1 19 -4 3 -9 -4 -9 -15z"/>
<path d="M4475 201 c3 -6 -3 -14 -12 -20 -10 -6 -13 -11 -7 -11 12 0 34 20 34
32 0 4 -5 8 -11 8 -5 0 -8 -4 -4 -9z"/>
<path d="M4533 195 c0 -8 4 -12 9 -9 5 3 6 10 3 15 -9 13 -12 11 -12 -6z"/>
<path d="M4593 195 c0 -8 4 -12 9 -9 4 3 8 9 8 15 0 5 -4 9 -8 9 -5 0 -9 -7
-9 -15z"/>
<path d="M4654 196 c1 -8 5 -18 8 -22 4 -3 5 1 4 10 -1 8 -5 18 -8 22 -4 3 -5
-1 -4 -10z"/>
<path d="M4713 195 c0 -8 4 -12 9 -9 4 3 8 9 8 15 0 5 -4 9 -8 9 -5 0 -9 -7
-9 -15z"/>
<path d="M4774 196 c1 -8 5 -18 8 -22 4 -3 5 1 4 10 -1 8 -5 18 -8 22 -4 3 -5
-1 -4 -10z"/>
<path d="M4833 195 c0 -8 4 -12 9 -9 4 3 8 9 8 15 0 5 -4 9 -8 9 -5 0 -9 -7
-9 -15z"/>
<path d="M4894 196 c1 -8 5 -18 8 -22 4 -3 5 1 4 10 -1 8 -5 18 -8 22 -4 3 -5
-1 -4 -10z"/>
<path d="M4953 195 c0 -8 4 -12 9 -9 4 3 8 9 8 15 0 5 -4 9 -8 9 -5 0 -9 -7
-9 -15z"/>
<path d="M5014 196 c1 -8 5 -18 8 -22 4 -3 5 1 4 10 -1 8 -5 18 -8 22 -4 3 -5
-1 -4 -10z"/>
<path d="M5073 195 c0 -8 4 -12 9 -9 4 3 8 9 8 15 0 5 -4 9 -8 9 -5 0 -9 -7
-9 -15z"/>
<path d="M5106 202 c-3 -5 1 -9 9 -9 8 0 15 4 15 9 0 4 -4 8 -9 8 -6 0 -12 -4
-15 -8z"/>
<path d="M5154 195 c3 -23 12 -26 13 -5 1 11 -2 20 -7 20 -4 0 -7 -7 -6 -15z"/>
<path d="M5213 189 c-2 -23 3 -25 10 -4 4 8 3 16 -1 19 -4 3 -9 -4 -9 -15z"/>
<path d="M5275 201 c3 -6 -3 -14 -12 -20 -10 -6 -13 -11 -7 -11 12 0 34 20 34
32 0 4 -5 8 -11 8 -5 0 -8 -4 -4 -9z"/>
<path d="M5333 189 c-2 -23 3 -25 10 -4 4 8 3 16 -1 19 -4 3 -9 -4 -9 -15z"/>
<path d="M5395 201 c3 -6 -3 -14 -12 -20 -10 -6 -13 -11 -7 -11 12 0 34 20 34
32 0 4 -5 8 -11 8 -5 0 -8 -4 -4 -9z"/>
<path d="M5475 200 c-3 -5 -1 -10 4 -10 6 0 11 5 11 10 0 6 -2 10 -4 10 -3 0
-8 -4 -11 -10z"/>
<path d="M5530 196 c0 -2 8 -10 18 -17 15 -13 16 -12 3 4 -13 16 -21 21 -21
13z"/>
<path d="M5496 173 c-6 -14 -5 -15 5 -6 7 7 10 15 7 18 -3 3 -9 -2 -12 -12z"/>
</g>
</svg>
